<svg width="1080" height="360" viewBox="0 0 1080 360" fill="none" xmlns="http://www.w3.org/2000/svg">
  <defs>
    <linearGradient id="grad" x1="0" y1="0" x2="1080" y2="0" gradientUnits="userSpaceOnUse">
      <stop offset="0%" stop-color="#FF8C00"/>
      <stop offset="100%" stop-color="#00A0FF"/>
    </linearGradient>
    <filter id="glow" x="-30%" y="-30%" width="160%" height="160%">
      <feGaussianBlur stdDeviation="6" result="b1"/>
      <feGaussianBlur stdDeviation="14" in="b1" result="b2"/>
      <feMerge>
        <feMergeNode in="b1"/>
        <feMergeNode in="b2"/>
      </feMerge>
    </filter>
  </defs>
  <!-- Glowing noise wave -->
  <path d="M60 180 L108 150 L156 270 L204 278 L252 216 L300 232 L348 208 L396 184 L444 259 L492 236 L540 242 L588 221 L636 137 L684 86 L732 117 L780 83 L828 122 L876 259 L924 94 L972 124 L1020 98"
        stroke="url(#grad)" stroke-width="10" stroke-linecap="round" fill="none" filter="url(#glow)"/>
  <!-- Core noise wave -->
  <path d="M60 180 L108 150 L156 270 L204 278 L252 216 L300 232 L348 208 L396 184 L444 259 L492 236 L540 242 L588 221 L636 137 L684 86 L732 117 L780 83 L828 122 L876 259 L924 94 L972 124 L1020 98"
        stroke="url(#grad)" stroke-width="4" stroke-linecap="round" fill="none"/>
</svg>
