<svg width="1080" height="360" viewBox="0 0 1080 360" fill="none" xmlns="http://www.w3.org/2000/svg">
  <defs>
    <linearGradient id="grad" x1="0" y1="0" x2="1080" y2="0" gradientUnits="userSpaceOnUse">
      <stop offset="0%" stop-color="#FF8C00"/>
      <stop offset="100%" stop-color="#00A0FF"/>
    </linearGradient>
    <filter id="glow" x="-30%" y="-30%" width="160%" height="160%">
      <feGaussianBlur stdDeviation="6" result="b1"/>
      <feGaussianBlur stdDeviation="14" in="b1" result="b2"/>
      <feMerge>
        <feMergeNode in="b1"/>
        <feMergeNode in="b2"/>
      </feMerge>
    </filter>
  </defs>
  <!-- Glowing noise line -->
  <path d="M60 180 L72 262 L84 87 L96 84 L108 242 L120 60 L132 83 L144 282 L156 99 L168 297 L180 259 L192 265 L204 95 L216 282 L228 103 L240 276 L252 85 L264 79 L276 290 L288 268 L300 253 L312 110 L324 245 L336 282 L348 65 L360 103 L372 111 L384 61 L396 90 L408 89 L420 284 L432 91 L444 69 L456 117 L468 109 L480 291 L492 63 L504 118 L516 248 L528 273 L540 288 L552 292 L564 298 L576 250 L588 88 L600 280 L612 289 L624 255 L636 244 L648 257 L660 80 L672 68 L684 84 L696 105 L708 266 L720 269 L732 253 L744 84 L756 296 L768 240 L780 288 L792 297 L804 94 L816 254 L828 87 L840 261 L852 250 L864 118 L876 118 L888 281 L900 295 L912 243 L924 84 L936 260 L948 296 L960 288 L972 76 L984 90 L996 120 L1008 101 L1020 180"
        stroke="url(#grad)" stroke-width="10" stroke-linecap="round" fill="none" filter="url(#glow)"/>
  <!-- Core noise line -->
  <path d="M60 180 L72 262 L84 87 L96 84 L108 242 L120 60 L132 83 L144 282 L156 99 L168 297 L180 259 L192 265 L204 95 L216 282 L228 103 L240 276 L252 85 L264 79 L276 290 L288 268 L300 253 L312 110 L324 245 L336 282 L348 65 L360 103 L372 111 L384 61 L396 90 L408 89 L420 284 L432 91 L444 69 L456 117 L468 109 L480 291 L492 63 L504 118 L516 248 L528 273 L540 288 L552 292 L564 298 L576 250 L588 88 L600 280 L612 289 L624 255 L636 244 L648 257 L660 80 L672 68 L684 84 L696 105 L708 266 L720 269 L732 253 L744 84 L756 296 L768 240 L780 288 L792 297 L804 94 L816 254 L828 87 L840 261 L852 250 L864 118 L876 118 L888 281 L900 295 L912 243 L924 84 L936 260 L948 296 L960 288 L972 76 L984 90 L996 120 L1008 101 L1020 180"
        stroke="url(#grad)" stroke-width="2" stroke-linecap="round" fill="none"/>
</svg>
